<svg width="208" height="35" viewBox="0 0 208 35" fill="none" xmlns="http://www.w3.org/2000/svg">
<path d="M23.1017 27.9615H12.522L9.56641 34.4105H0L17.5646 0H29.4351L32.3424 34.4225H23.3551L23.1017 27.9615ZM15.9118 20.6222H22.8243L22.4262 10.636L22.3779 8.61465C22.3779 7.43555 22.4141 6.41286 22.4744 5.53455C22.1005 6.88209 21.6179 8.18151 21.0389 9.44483L15.9118 20.6222ZM57.1813 0H66.9528L49.8346 34.4225H39.5444L37.0955 0H46.1069L46.7463 18.8536V20.0567C46.7463 22.3187 46.6257 24.3279 46.3723 26.0846H46.5654C46.7825 25.0859 47.1324 23.8467 47.6149 22.3788C48.0974 20.911 48.5317 19.768 48.9298 18.9498L57.1813 0ZM81.6945 27.9615H71.1147L68.1591 34.4105H58.5807L76.1452 0H88.0158L90.9231 34.4225H81.9357L81.6945 27.9615ZM74.4925 20.6222H81.4049L81.0068 10.636L80.9586 8.61465C80.9586 7.43555 80.9948 6.41286 81.0551 5.53455C80.6811 6.88209 80.1986 8.18151 79.6195 9.44483L74.4925 20.6222ZM94.8558 34.4225L102.142 0H111.371L105.677 26.9027H116.932L115.328 34.4105H94.8558V34.4225ZM120.238 34.4225L127.524 0H136.897L129.599 34.4225H120.238ZM151.41 34.4225H142.181L147.779 7.60399H140.299L141.928 0H166.188L164.511 7.60399H157.007L151.41 34.4225ZM190.749 34.4225H181.52L184.476 20.3936H176.309L173.317 34.4225H164.089L171.363 0H180.592L177.95 12.7535H186.165L188.807 0H198.06L190.749 34.4225Z" fill="black"/>
<path d="M197.987 31.4269C197.987 29.7184 198.494 28.3708 199.519 27.3963C200.545 26.4217 201.956 25.9404 203.742 25.9404C205.069 25.9404 206.106 26.2533 206.854 26.8789C207.614 27.5045 207.988 28.4069 207.988 29.586C207.988 31.4389 207.518 32.7985 206.577 33.6768C205.636 34.5551 204.14 35.0002 202.089 35.0002C200.858 35.0002 199.869 34.7115 199.109 34.134C198.361 33.5565 197.987 32.6541 197.987 31.4269Z" fill="#D22630"/>
</svg>
